<svg width="398" height="120" viewBox="0 0 398 120" fill="none" xmlns="http://www.w3.org/2000/svg">
<path d="M68.2159 41.3348L22.7305 82.1441V113H114.747V82.1441L68.2159 41.3348Z" stroke="#009688" stroke-width="12" stroke-linecap="round" stroke-linejoin="round"/>
<path d="M6 65.7209L68.7386 6L132 65.7209" stroke="#009688" stroke-width="12" stroke-linecap="round" stroke-linejoin="round"/>
<path d="M182.195 51.168V59.488H151V14.688H181.447V23.008H160.266V32.736H178.972V40.8H160.266V51.168H182.195Z" fill="#525252"/>
<path d="M186.706 37.472H202.994V45.472H186.706V37.472Z" fill="#525252"/>
<path d="M236.362 59.488L228.592 47.008H228.131H220.016V59.488H210.692V14.688H228.131C231.7 14.688 234.788 15.3493 237.398 16.672C240.045 17.9947 242.079 19.872 243.499 22.304C244.918 24.736 245.628 27.616 245.628 30.944C245.628 34.272 244.899 37.152 243.441 39.584C242.021 41.9733 239.988 43.808 237.34 45.088L246.376 59.488H236.362ZM236.189 30.944C236.189 28.4267 235.46 26.5067 234.002 25.184C232.544 23.8187 230.414 23.136 227.613 23.136H220.016V38.752H227.613C230.414 38.752 232.544 38.0693 234.002 36.704C235.46 35.3387 236.189 33.4187 236.189 30.944Z" fill="#525252"/>
<path d="M282.714 42.4C282.714 42.528 282.657 43.424 282.542 45.088H259.116C259.538 47.2213 260.536 48.9067 262.109 50.144C263.683 51.3813 265.639 52 267.98 52C269.592 52 271.011 51.744 272.239 51.232C273.505 50.6773 274.676 49.824 275.75 48.672L280.527 54.432C277.611 58.144 273.352 60 267.75 60C264.258 60 261.169 59.2533 258.483 57.76C255.797 56.224 253.725 54.112 252.267 51.424C250.809 48.736 250.08 45.6853 250.08 42.272C250.08 38.9013 250.79 35.872 252.21 33.184C253.668 30.4533 255.644 28.3413 258.138 26.848C260.67 25.312 263.491 24.544 266.599 24.544C269.63 24.544 272.373 25.2693 274.829 26.72C277.285 28.1707 279.203 30.2613 280.585 32.992C282.004 35.68 282.714 38.816 282.714 42.4ZM266.656 32.096C264.623 32.096 262.915 32.736 261.534 34.016C260.152 35.296 259.308 37.0453 259.001 39.264H274.254C273.947 37.088 273.102 35.36 271.721 34.08C270.34 32.7573 268.651 32.096 266.656 32.096Z" fill="#525252"/>
<path d="M307.513 24.544C311.35 24.544 314.439 25.824 316.779 28.384C319.158 30.944 320.348 34.7413 320.348 39.776V59.488H311.369V41.312C311.369 38.5813 310.832 36.5547 309.757 35.232C308.683 33.8667 307.129 33.184 305.095 33.184C302.832 33.184 301.028 33.9733 299.685 35.552C298.342 37.088 297.671 39.392 297.671 42.464V59.488H288.692V25.056H297.268V29.088C298.457 27.6373 299.935 26.528 301.7 25.76C303.465 24.9493 305.402 24.544 307.513 24.544Z" fill="#525252"/>
<path d="M348.458 57.824C347.576 58.5493 346.482 59.104 345.178 59.488C343.911 59.8293 342.568 60 341.149 60C337.465 60 334.607 58.9547 332.573 56.864C330.578 54.7733 329.58 51.7013 329.58 47.648V33.504H324.803V25.824H329.58V17.44H338.559V25.824H346.271V33.504H338.559V47.52C338.559 48.9707 338.885 50.1013 339.537 50.912C340.228 51.68 341.187 52.064 342.415 52.064C343.835 52.064 345.043 51.6373 346.041 50.784L348.458 57.824Z" fill="#525252"/>
<path d="M365.988 24.544C370.784 24.544 374.468 25.824 377.039 28.384C379.61 30.9013 380.895 34.72 380.895 39.84V59.488H372.492V55.2C370.804 58.4 367.657 60 363.053 60C360.674 60 358.602 59.552 356.837 58.656C355.11 57.76 353.786 56.5227 352.865 54.944C351.945 53.3653 351.484 51.5733 351.484 49.568C351.484 46.368 352.558 43.8507 354.707 42.016C356.894 40.1813 360.252 39.264 364.779 39.264H371.916C371.916 37.088 371.322 35.424 370.132 34.272C368.943 33.0773 367.158 32.48 364.779 32.48C363.13 32.48 361.499 32.7787 359.887 33.376C358.314 33.9307 356.971 34.6987 355.858 35.68L352.635 28.704C354.324 27.3813 356.338 26.3573 358.679 25.632C361.058 24.9067 363.494 24.544 365.988 24.544ZM365.297 53.28C366.832 53.28 368.194 52.896 369.384 52.128C370.573 51.3173 371.418 50.144 371.916 48.608V45.088H365.758C362.074 45.088 360.233 46.432 360.233 49.12C360.233 50.4 360.674 51.424 361.556 52.192C362.477 52.9173 363.724 53.28 365.297 53.28Z" fill="#525252"/>
<path d="M389.021 12H398V59.488H389.021V12Z" fill="#525252"/>
<path d="M187.951 74.688V119.488H178.627V101.12H160.324V119.488H151V74.688H160.324V92.352H178.627V74.688H187.951Z" fill="#525252"/>
<path d="M211.584 120C208.323 120 205.387 119.253 202.778 117.76C200.207 116.224 198.193 114.112 196.735 111.424C195.277 108.736 194.548 105.685 194.548 102.272C194.548 98.8587 195.277 95.808 196.735 93.12C198.193 90.432 200.207 88.3413 202.778 86.848C205.387 85.312 208.323 84.544 211.584 84.544C214.846 84.544 217.762 85.312 220.333 86.848C222.904 88.3413 224.918 90.432 226.376 93.12C227.834 95.808 228.563 98.8587 228.563 102.272C228.563 105.685 227.834 108.736 226.376 111.424C224.918 114.112 222.904 116.224 220.333 117.76C217.762 119.253 214.846 120 211.584 120ZM211.584 111.808C213.887 111.808 215.767 110.955 217.225 109.248C218.721 107.499 219.469 105.173 219.469 102.272C219.469 99.3707 218.721 97.0667 217.225 95.36C215.767 93.6107 213.887 92.736 211.584 92.736C209.282 92.736 207.383 93.6107 205.886 95.36C204.39 97.0667 203.642 99.3707 203.642 102.272C203.642 105.173 204.39 107.499 205.886 109.248C207.383 110.955 209.282 111.808 211.584 111.808Z" fill="#525252"/>
<path d="M274.221 84.544C278.096 84.544 281.166 85.824 283.43 88.384C285.732 90.9013 286.883 94.6987 286.883 99.776V119.488H277.904V101.312C277.904 98.5813 277.386 96.5547 276.35 95.232C275.353 93.8667 273.914 93.184 272.034 93.184C269.923 93.184 268.254 93.952 267.026 95.488C265.798 96.9813 265.185 99.2213 265.185 102.208V119.488H256.206V101.312C256.206 95.8933 254.249 93.184 250.335 93.184C248.263 93.184 246.613 93.952 245.385 95.488C244.157 96.9813 243.544 99.2213 243.544 102.208V119.488H234.565V85.056H243.141V89.024C244.292 87.5733 245.692 86.464 247.342 85.696C249.03 84.928 250.872 84.544 252.868 84.544C255.055 84.544 257.031 85.0347 258.796 86.016C260.561 86.9547 261.981 88.3413 263.055 90.176C264.321 88.384 265.914 86.9973 267.832 86.016C269.789 85.0347 271.919 84.544 274.221 84.544Z" fill="#525252"/>
<path d="M325.6 102.4C325.6 102.528 325.543 103.424 325.427 105.088H302.002C302.424 107.221 303.422 108.907 304.995 110.144C306.568 111.381 308.525 112 310.866 112C312.477 112 313.897 111.744 315.125 111.232C316.391 110.677 317.562 109.824 318.636 108.672L323.413 114.432C320.497 118.144 316.238 120 310.636 120C307.144 120 304.055 119.253 301.369 117.76C298.683 116.224 296.611 114.112 295.153 111.424C293.695 108.736 292.966 105.685 292.966 102.272C292.966 98.9013 293.676 95.872 295.096 93.184C296.554 90.4533 298.53 88.3413 301.024 86.848C303.556 85.312 306.376 84.544 309.485 84.544C312.516 84.544 315.259 85.2693 317.715 86.72C320.171 88.1707 322.089 90.2613 323.471 92.992C324.89 95.68 325.6 98.816 325.6 102.4ZM309.542 92.096C307.508 92.096 305.801 92.736 304.42 94.016C303.038 95.296 302.194 97.0453 301.887 99.264H317.139C316.832 97.088 315.988 95.36 314.607 94.08C313.226 92.7573 311.537 92.096 309.542 92.096Z" fill="#525252"/>
</svg>
