<svg width="136" height="72" viewBox="0 0 136 72" fill="none" xmlns="http://www.w3.org/2000/svg">
<path d="M122.83 18.7997C122.832 20.0572 123.207 21.2858 123.907 22.3304C124.607 23.375 125.601 24.1886 126.763 24.6684C127.925 25.1483 129.204 25.2728 130.437 25.0263C131.67 24.7797 132.802 24.1732 133.691 23.2834C134.579 22.3935 135.184 21.2602 135.429 20.0268C135.673 18.7933 135.547 17.5151 135.065 16.3535C134.583 15.192 133.768 14.1993 132.722 13.5009C131.677 12.8024 130.448 12.4297 129.19 12.4297C128.354 12.4297 127.526 12.5945 126.754 12.9148C125.982 13.235 125.28 13.7044 124.689 14.296C124.099 14.8877 123.63 15.59 123.311 16.3628C122.992 17.1355 122.829 17.9636 122.83 18.7997Z" fill="#FFDCA8"/>
<path d="M1.43015 41.33C1.8554 41.33 2.20016 40.9853 2.20016 40.56C2.20016 40.1348 1.8554 39.79 1.43015 39.79C1.00489 39.79 0.660156 40.1348 0.660156 40.56C0.660156 40.9853 1.00489 41.33 1.43015 41.33Z" fill="#FEBD5C" fill-opacity="0.86"/>
<path d="M1.43015 32.0898C1.63436 32.0898 1.83024 32.171 1.97464 32.3154C2.11904 32.4598 2.20016 32.6556 2.20016 32.8598C2.20016 33.0641 2.11904 33.2599 1.97464 33.4043C1.83024 33.5487 1.63436 33.6298 1.43015 33.6298C1.22593 33.6298 1.03008 33.5487 0.885681 33.4043C0.741278 33.2599 0.660156 33.0641 0.660156 32.8598C0.660156 32.6556 0.741278 32.4598 0.885681 32.3154C1.03008 32.171 1.22593 32.0898 1.43015 32.0898Z" fill="#FEBD5C" fill-opacity="0.86"/>
<path d="M1.43015 25.9101C1.8554 25.9101 2.20016 25.5654 2.20016 25.1401C2.20016 24.7149 1.8554 24.3701 1.43015 24.3701C1.00489 24.3701 0.660156 24.7149 0.660156 25.1401C0.660156 25.5654 1.00489 25.9101 1.43015 25.9101Z" fill="#FEBD5C" fill-opacity="0.86"/>
<path d="M1.43015 16.6499C1.58244 16.6499 1.73131 16.6951 1.85794 16.7797C1.98457 16.8643 2.08326 16.9845 2.14154 17.1252C2.19982 17.2659 2.21507 17.4208 2.18536 17.5701C2.15565 17.7195 2.08233 17.8567 1.97464 17.9644C1.86695 18.0721 1.72975 18.1454 1.58038 18.1751C1.43102 18.2048 1.2762 18.1896 1.1355 18.1313C0.994799 18.073 0.874526 17.9743 0.789917 17.8477C0.705308 17.7211 0.660156 17.5722 0.660156 17.4199C0.660156 17.2157 0.741278 17.0198 0.885681 16.8754C1.03008 16.731 1.22593 16.6499 1.43015 16.6499Z" fill="#FEBD5C" fill-opacity="0.86"/>
<path d="M8.22998 39.79C8.4342 39.79 8.63004 39.8712 8.77444 40.0156C8.91885 40.16 8.99997 40.3558 8.99997 40.56C8.99997 40.7643 8.91885 40.9601 8.77444 41.1045C8.63004 41.2489 8.4342 41.33 8.22998 41.33C8.02576 41.33 7.82989 41.2489 7.68549 41.1045C7.54108 40.9601 7.45996 40.7643 7.45996 40.56C7.45996 40.3558 7.54108 40.16 7.68549 40.0156C7.82989 39.8712 8.02576 39.79 8.22998 39.79Z" fill="#FEBD5C" fill-opacity="0.86"/>
<path d="M8.22998 32.0898C8.4342 32.0898 8.63004 32.171 8.77444 32.3154C8.91885 32.4598 8.99997 32.6556 8.99997 32.8598C8.99997 33.0641 8.91885 33.2599 8.77444 33.4043C8.63004 33.5487 8.4342 33.6298 8.22998 33.6298C8.02576 33.6298 7.82989 33.5487 7.68549 33.4043C7.54108 33.2599 7.45996 33.0641 7.45996 32.8598C7.45996 32.6556 7.54108 32.4598 7.68549 32.3154C7.82989 32.171 8.02576 32.0898 8.22998 32.0898Z" fill="#FEBD5C" fill-opacity="0.86"/>
<path d="M8.23005 24.3697C8.38276 24.3697 8.53201 24.4151 8.65885 24.5002C8.78568 24.5852 8.88435 24.7061 8.94233 24.8474C9.0003 24.9887 9.01497 25.144 8.98444 25.2936C8.95391 25.4433 8.87957 25.5804 8.77088 25.6877C8.66219 25.795 8.52405 25.8675 8.37403 25.8961C8.22401 25.9247 8.06889 25.908 7.92838 25.8482C7.78787 25.7884 7.6683 25.6881 7.5849 25.5602C7.50151 25.4322 7.45804 25.2824 7.46003 25.1297C7.46002 25.029 7.48002 24.9294 7.51883 24.8365C7.55765 24.7437 7.61453 24.6594 7.68616 24.5887C7.7578 24.518 7.84277 24.4622 7.93613 24.4246C8.0295 24.387 8.1294 24.3684 8.23005 24.3697Z" fill="#FEBD5C" fill-opacity="0.86"/>
<path d="M8.22998 16.6499C8.38227 16.6499 8.53112 16.6951 8.65775 16.7797C8.78437 16.8643 8.88307 16.9845 8.94135 17.1252C8.99962 17.2659 9.01488 17.4208 8.98517 17.5701C8.95546 17.7195 8.88213 17.8567 8.77444 17.9644C8.66676 18.0721 8.52955 18.1454 8.38019 18.1751C8.23082 18.2048 8.076 18.1896 7.9353 18.1313C7.7946 18.073 7.67436 17.9743 7.58975 17.8477C7.50514 17.7211 7.45996 17.5722 7.45996 17.4199C7.45996 17.2157 7.54108 17.0198 7.68549 16.8754C7.82989 16.731 8.02576 16.6499 8.22998 16.6499Z" fill="#FEBD5C" fill-opacity="0.86"/>
<path d="M15.02 41.33C15.4452 41.33 15.79 40.9853 15.79 40.56C15.79 40.1348 15.4452 39.79 15.02 39.79C14.5947 39.79 14.25 40.1348 14.25 40.56C14.25 40.9853 14.5947 41.33 15.02 41.33Z" fill="#FEBD5C" fill-opacity="0.86"/>
<path d="M15.0005 32.0898C15.1527 32.0898 15.3016 32.135 15.4283 32.2196C15.5549 32.3042 15.6536 32.4245 15.7119 32.5652C15.7701 32.7059 15.7854 32.8607 15.7557 33.0101C15.726 33.1594 15.6526 33.2966 15.5449 33.4043C15.4372 33.512 15.3 33.5853 15.1507 33.6151C15.0013 33.6448 14.8465 33.6295 14.7058 33.5712C14.5651 33.5129 14.4448 33.4143 14.3602 33.2876C14.2756 33.161 14.2305 33.0121 14.2305 32.8598C14.2305 32.6556 14.3116 32.4598 14.456 32.3154C14.6004 32.171 14.7962 32.0898 15.0005 32.0898Z" fill="#FEBD5C" fill-opacity="0.86"/>
<path d="M21.81 41.33C22.2353 41.33 22.58 40.9853 22.58 40.56C22.58 40.1348 22.2353 39.79 21.81 39.79C21.3848 39.79 21.04 40.1348 21.04 40.56C21.04 40.9853 21.3848 41.33 21.81 41.33Z" fill="#FEBD5C" fill-opacity="0.86"/>
<path d="M21.81 32.0898C22.0142 32.0898 22.2101 32.171 22.3545 32.3154C22.4989 32.4598 22.58 32.6556 22.58 32.8598C22.58 33.0641 22.4989 33.2599 22.3545 33.4043C22.2101 33.5487 22.0142 33.6298 21.81 33.6298C21.6058 33.6298 21.41 33.5487 21.2656 33.4043C21.1212 33.2599 21.04 33.0641 21.04 32.8598C21.04 32.6556 21.1212 32.4598 21.2656 32.3154C21.41 32.171 21.6058 32.0898 21.81 32.0898Z" fill="#FEBD5C" fill-opacity="0.86"/>
<path d="M123.12 38.3699V38.8899L120.38 36.1499H120.91L123.12 38.3699Z" fill="#7EDFF1"/>
<path d="M113.07 36.1499H113.6L123.12 45.6799V46.2099L113.07 36.1499Z" fill="#7EDFF1"/>
<path d="M117.94 36.1499H118.47L123.12 40.7999V41.3299L117.94 36.1499Z" fill="#7EDFF1"/>
<path d="M110.99 36.1499H111.16L123.12 48.1199V48.2799H122.76L110.99 36.5199V36.1499Z" fill="#7EDFF1"/>
<path d="M115.5 36.1499H116.03L123.12 43.2399V43.7699L115.5 36.1499Z" fill="#7EDFF1"/>
<path d="M110.99 43.8298V43.2998L115.97 48.2798H115.45L110.99 43.8298Z" fill="#7EDFF1"/>
<path d="M110.99 46.2697V45.7397L113.54 48.2797H113.01L110.99 46.2697Z" fill="#7EDFF1"/>
<path d="M110.99 38.9499V38.4199L120.85 48.2799H120.32L110.99 38.9499Z" fill="#7EDFF1"/>
<path d="M110.99 41.3899V40.8599L118.41 48.2799H117.88L110.99 41.3899Z" fill="#7EDFF1"/>
<path d="M14.4902 26.3501H27.4502V13.3901L14.4902 13.3901L14.4902 26.3501Z" fill="url(#paint0_linear)"/>
<path d="M75.7398 0.859863H40.5898V36.0099H75.7398V0.859863Z" fill="url(#paint1_linear)"/>
<path d="M56.8801 0.859863C56.8801 0.859863 56.8801 0.949868 56.8801 0.989868C56.8788 3.46875 57.3659 5.9236 58.3136 8.21417C59.2613 10.5047 60.6511 12.5861 62.4035 14.3394C64.1558 16.0927 66.2365 17.4836 68.5266 18.4325C70.8166 19.3814 73.2712 19.8699 75.7501 19.8699V36.0099H72.7501C63.9865 35.2541 55.8248 31.2401 49.8763 24.7603C43.9279 18.2805 40.6251 9.80597 40.6201 1.00986V0.879868L56.8801 0.859863Z" fill="#FEBD5C" fill-opacity="0.86"/>
<path d="M75.7504 36.0098L110.9 36.0098V0.859764L75.7504 0.859764V36.0098Z" fill="#36746C"/>
<path d="M87.2804 24.48H99.3604V12.4L87.2804 12.4V24.48Z" fill="#FEBD5C" fill-opacity="0.86"/>
<path d="M75.7398 36.0098V71.1698L40.5898 36.0098H75.7398Z" fill="#FEBD5C" fill-opacity="0.86"/>
<defs>
<linearGradient id="paint0_linear" x1="20.9702" y1="26.3501" x2="20.9702" y2="13.3901" gradientUnits="userSpaceOnUse">
<stop stop-color="#FFE7C4"/>
<stop offset="0.583333" stop-color="#FFA928" stop-opacity="0.39"/>
<stop offset="1" stop-color="#FFA928" stop-opacity="0.14"/>
</linearGradient>
<linearGradient id="paint1_linear" x1="58.1648" y1="0.859863" x2="58.1648" y2="36.0099" gradientUnits="userSpaceOnUse">
<stop stop-color="#FFE7C4"/>
<stop offset="0.583333" stop-color="#FFA928" stop-opacity="0.39"/>
<stop offset="1" stop-color="#FFA928" stop-opacity="0.14"/>
</linearGradient>
</defs>
</svg>
