<svg width="11" height="11" viewBox="0 0 11 11" fill="none" xmlns="http://www.w3.org/2000/svg">
<path d="M5.42105 0.629922C4.41391 0.629924 3.42945 0.928703 2.59219 1.48844C1.75493 2.04818 1.10251 2.84372 0.717556 3.77438C0.332602 4.70504 0.232382 5.72898 0.429592 6.71662C0.626803 7.70425 1.11262 8.61118 1.82547 9.32263C2.53832 10.0341 3.44615 10.5181 4.43417 10.7133C5.42219 10.9086 6.44598 10.8064 7.37588 10.4196C8.30578 10.0328 9.10002 9.37885 9.65811 8.54049C10.2162 7.70213 10.5131 6.71705 10.5111 5.70992C10.5124 5.0416 10.3816 4.37959 10.1261 3.76201C9.87067 3.14443 9.49559 2.58345 9.02255 2.11133C8.5495 1.63921 7.9878 1.26528 7.36972 1.01104C6.75163 0.756805 6.08937 0.627285 5.42105 0.629922ZM6.98104 3.27992C6.98104 3.27992 5.66104 3.07992 5.66104 3.93992V4.78992H6.85104L6.70108 6.08992H5.70108V9.47992H4.37106V6.08992H3.24105V4.78992H4.35104V3.78992C4.33209 3.38476 4.46038 2.98642 4.71218 2.66844C4.96399 2.35047 5.32231 2.13432 5.72104 2.05992C6.15136 1.98775 6.59076 1.98775 7.02108 2.05992L6.98104 3.27992Z" fill="#007C71"/>
</svg>
