<svg width="24" height="19" viewBox="0 0 24 19" fill="none" xmlns="http://www.w3.org/2000/svg">
<path d="M23.5905 2.79025V10.0903C23.5905 10.0903 22.0805 10.4003 21.7705 10.4403C21.4359 10.559 21.0764 10.5901 20.7263 10.5306C20.3762 10.4711 20.0472 10.323 19.7705 10.1003C18.6805 9.02027 14.7705 5.03026 14.7705 5.03026C14.5321 4.82417 14.2322 4.70262 13.9175 4.68454C13.6029 4.66646 13.2911 4.75284 13.0305 4.93025C12.0305 5.47025 10.6005 6.26026 10.0305 6.56026C9.80826 6.72699 9.53841 6.81812 9.26055 6.82027C8.9408 6.80524 8.63585 6.68108 8.39652 6.46849C8.1572 6.2559 7.99796 5.96772 7.94534 5.65196C7.89271 5.33621 7.94988 5.01196 8.10732 4.73325C8.26475 4.45453 8.51295 4.23818 8.81055 4.12025C10.2005 3.24025 13.1106 1.55025 14.3306 0.880249C15.0706 0.470249 15.6006 0.440252 16.6206 1.32025L18.9905 3.41026C19.2838 3.54889 19.6064 3.61409 19.9305 3.60025C20.8105 3.47025 23.5905 2.77025 23.5905 2.77025V2.79025ZM8.18055 15.1903C8.28168 14.9529 8.31375 14.6919 8.27306 14.4371C8.23237 14.1824 8.12057 13.9443 7.95055 13.7503C7.78853 13.5918 7.58819 13.4781 7.36909 13.4203C7.15 13.3625 6.91965 13.3624 6.70055 13.4202C6.77337 13.1989 6.78676 12.9623 6.73937 12.7341C6.69199 12.506 6.58549 12.2943 6.43055 12.1203C6.27133 11.961 6.07231 11.8472 5.85423 11.791C5.63615 11.7347 5.40697 11.7379 5.19055 11.8002C5.26337 11.5789 5.27676 11.3423 5.22938 11.1142C5.18199 10.886 5.07549 10.6743 4.92055 10.5003C4.794 10.3607 4.63965 10.2492 4.46743 10.1729C4.29521 10.0966 4.10892 10.0572 3.92055 10.0572C3.73218 10.0572 3.54589 10.0966 3.37366 10.1729C3.20144 10.2492 3.04709 10.3607 2.92055 10.5003C2.34055 11.0703 1.97055 12.1103 2.48055 12.7203C2.99055 13.3303 3.59055 12.9603 4.04055 12.8503C3.91055 13.3103 3.54055 13.7403 4.04055 14.3503C4.54055 14.9603 5.14055 14.5903 5.59055 14.4803C5.46055 14.9403 5.10055 15.4103 5.59055 15.9703C6.08055 16.5303 6.77055 16.2302 7.25055 16.0802C7.06055 16.5802 6.66055 17.0803 7.18055 17.7203C7.70055 18.3603 8.87055 18.0403 9.45055 17.4703C9.7212 17.2152 9.88511 16.867 9.90923 16.4958C9.93336 16.1247 9.81591 15.7582 9.58055 15.4703C9.40742 15.2937 9.18718 15.1705 8.94606 15.1156C8.70494 15.0606 8.45311 15.0761 8.22055 15.1603L8.18055 15.1903ZM18.7206 11.3703L14.2705 6.75026C14.0681 6.55011 13.8101 6.41544 13.5302 6.36372C13.2502 6.31201 12.9612 6.34563 12.7005 6.46025C12.0805 6.74025 11.2705 7.13025 10.7005 7.46025C10.277 7.70247 9.81267 7.86516 9.33055 7.94026C8.70016 7.92712 8.1005 7.66539 7.66221 7.21211C7.22391 6.75883 6.9825 6.15072 6.99055 5.52025C6.99805 5.12156 7.10316 4.73079 7.29667 4.38213C7.49018 4.03346 7.76619 3.73754 8.10055 3.52025C9.03055 2.86025 11.1606 1.67026 11.1606 1.67026C10.8988 1.38563 10.5778 1.16197 10.2201 1.01509C9.86237 0.868213 9.47678 0.801693 9.09055 0.820252C7.66055 0.820252 4.68055 2.82025 4.68055 2.82025C4.36699 2.98963 4.01782 3.08245 3.66154 3.09114C3.30527 3.09983 2.95199 3.02414 2.63055 2.87025L0.310547 2.03026V10.4103C0.310547 10.4103 0.970547 10.6102 1.56055 10.8602C1.69995 10.4597 1.92521 10.0946 2.22055 9.79027C2.68746 9.32373 3.3205 9.06166 3.98055 9.06166C4.6406 9.06166 5.27364 9.32373 5.74055 9.79027C6.00791 10.0715 6.20046 10.4153 6.30055 10.7903C6.6799 10.901 7.0243 11.1077 7.30055 11.3902C7.56678 11.6708 7.75621 12.0152 7.85055 12.3902C8.23179 12.4966 8.57726 12.7039 8.85055 12.9902C9.14431 13.3038 9.34813 13.6907 9.44055 14.1102C9.82307 14.2296 10.1678 14.4467 10.4406 14.7402C10.6973 15.0196 10.8859 15.3544 10.9917 15.7187C11.0975 16.083 11.1177 16.4669 11.0506 16.8403C11.0506 16.8403 11.3806 17.2403 11.5806 17.4403C11.674 17.5386 11.7864 17.6169 11.9111 17.6704C12.0357 17.7239 12.1699 17.7515 12.3055 17.7515C12.4412 17.7515 12.5754 17.7239 12.7 17.6704C12.8247 17.6169 12.9371 17.5386 13.0305 17.4403C13.2226 17.2378 13.3296 16.9693 13.3296 16.6903C13.3296 16.4112 13.2226 16.1428 13.0305 15.9403C11.6905 14.5503 11.6205 14.4503 11.7505 14.3103C11.8805 14.1703 12.0805 14.4803 13.5905 16.0403C13.6183 16.0846 13.652 16.125 13.6906 16.1603C13.784 16.2586 13.8964 16.3369 14.0211 16.3904C14.1457 16.4439 14.2799 16.4715 14.4156 16.4715C14.5512 16.4715 14.6854 16.4439 14.81 16.3904C14.9347 16.3369 15.0471 16.2586 15.1405 16.1603C15.3326 15.9578 15.4396 15.6893 15.4396 15.4103C15.4396 15.1312 15.3326 14.8628 15.1405 14.6603L15.0705 14.6003L15.0106 14.5303C13.6406 13.1103 13.4806 12.8403 13.5806 12.7303C13.6806 12.6203 14.3405 13.3303 15.7105 14.7303C15.8979 14.9165 16.1514 15.021 16.4156 15.021C16.6797 15.021 16.9332 14.9165 17.1206 14.7303C17.2976 14.5418 17.4018 14.2964 17.4147 14.0381C17.4275 13.7798 17.348 13.5254 17.1906 13.3203C17.1906 13.3203 17.1906 13.2603 17.1906 13.2503C15.4606 11.4503 15.5405 11.4203 15.6405 11.3203C15.7405 11.2203 15.7506 11.2002 17.4406 12.9502C17.5338 13.047 17.6457 13.124 17.7694 13.1766C17.8931 13.2292 18.0261 13.2563 18.1606 13.2563C18.295 13.2563 18.428 13.2292 18.5517 13.1766C18.6754 13.124 18.7873 13.047 18.8805 12.9502C19.0726 12.7477 19.1796 12.4793 19.1796 12.2002C19.1796 11.9212 19.0726 11.6527 18.8805 11.4502L18.7206 11.3703Z" fill="#007C71"/>
</svg>
