<svg width="21" height="18" viewBox="0 0 21 18" fill="none" xmlns="http://www.w3.org/2000/svg">
<path d="M3.55028 17.2201C3.54757 17.2769 3.55643 17.3337 3.57632 17.387C3.59621 17.4403 3.62671 17.489 3.66599 17.5301C3.70526 17.5713 3.75248 17.604 3.80479 17.6263C3.85709 17.6487 3.9134 17.6602 3.97028 17.6601H8.97028V13.5501C8.9572 13.4654 8.96272 13.379 8.98646 13.2966C9.01019 13.2143 9.05158 13.1381 9.10773 13.0734C9.16388 13.0087 9.23344 12.957 9.31159 12.9219C9.38974 12.8868 9.4746 12.8691 9.56027 12.8701H11.6303C11.7247 12.8583 11.8205 12.8673 11.9111 12.8965C12.0016 12.9258 12.0846 12.9746 12.1543 13.0394C12.2239 13.1043 12.2784 13.1836 12.314 13.2719C12.3496 13.3601 12.3654 13.4551 12.3603 13.5501V17.6401H17.2603C17.3324 17.6432 17.4044 17.6309 17.4714 17.6041C17.5384 17.5772 17.599 17.5365 17.6491 17.4845C17.6992 17.4325 17.7377 17.3704 17.762 17.3025C17.7864 17.2345 17.796 17.1621 17.7903 17.0901V9.51013L10.8703 3.37012L3.53027 9.51013L3.55028 17.2201Z" fill="#007C71"/>
<path d="M0.850586 8.94034C0.850586 8.94034 1.47059 10.0903 2.85059 8.94034L11.0006 2.09033L18.6206 8.92032C20.2006 10.0603 20.7906 8.92032 20.7906 8.92032L11.0006 0.090332L0.850586 8.94034Z" fill="#007C71"/>
<path d="M18.3906 2.09033H16.3906V4.47034L18.3906 6.13034V2.09033Z" fill="#007C71"/>
</svg>
