<svg width="11" height="11" viewBox="0 0 11 11" fill="none" xmlns="http://www.w3.org/2000/svg">
<path d="M5.64071 4.83984C5.46624 4.83986 5.2957 4.89173 5.15078 4.98888C5.00586 5.08602 4.89304 5.22405 4.82674 5.38543C4.76044 5.54681 4.74363 5.72426 4.7784 5.89523C4.81318 6.0662 4.89798 6.22298 5.02206 6.34564C5.14613 6.4683 5.30389 6.55132 5.47524 6.58414C5.6466 6.61695 5.82384 6.59809 5.98446 6.52995C6.14507 6.46181 6.2818 6.34746 6.37728 6.20144C6.47276 6.05541 6.5227 5.88431 6.52071 5.70985C6.51808 5.47819 6.42417 5.25692 6.25942 5.09405C6.09467 4.93117 5.87238 4.83983 5.64071 4.83984Z" fill="#007C71"/>
<path d="M7.86102 3.98991C7.81714 3.87646 7.74885 3.77404 7.66101 3.6899C7.57817 3.60284 7.47514 3.53758 7.36102 3.49991C7.19563 3.4338 7.01918 3.39985 6.84106 3.3999C6.52106 3.3999 6.43105 3.3999 5.64105 3.3999C4.85105 3.3999 4.75104 3.3999 4.44104 3.3999C4.26414 3.40329 4.08877 3.43364 3.92102 3.48991C3.80829 3.53515 3.70616 3.60325 3.62103 3.6899C3.53674 3.77696 3.46896 3.87861 3.42102 3.98991C3.36578 4.15791 3.33549 4.3331 3.33105 4.5099C3.33105 4.8299 3.33105 4.91991 3.33105 5.70991C3.33105 6.49991 3.33105 6.5999 3.33105 6.9099C3.3333 7.08691 3.36365 7.26243 3.42102 7.4299C3.46367 7.54398 3.53213 7.64666 3.62103 7.7299C3.70328 7.81997 3.80625 7.88862 3.92102 7.9299C4.08784 7.99101 4.26345 8.02479 4.44104 8.02991H6.84106C7.01865 8.02479 7.1942 7.99101 7.36102 7.9299C7.47441 7.88567 7.57739 7.8184 7.66345 7.73234C7.74951 7.64628 7.81679 7.54329 7.86102 7.4299C7.92348 7.26378 7.95404 7.08736 7.95105 6.9099C7.95105 6.5999 7.95105 6.50991 7.95105 5.70991C7.95105 4.90991 7.95105 4.8199 7.95105 4.5099C7.95181 4.33263 7.92131 4.15661 7.86102 3.98991ZM5.64105 7.3699C5.31232 7.37188 4.99036 7.27621 4.71606 7.09502C4.44177 6.91382 4.22746 6.65526 4.10028 6.35212C3.9731 6.04897 3.93879 5.71489 4.00171 5.39223C4.06463 5.06956 4.22192 4.77284 4.45367 4.53969C4.68543 4.30653 4.98119 4.14744 5.30347 4.08257C5.62575 4.01771 5.96007 4.04999 6.26398 4.17533C6.56789 4.30067 6.82771 4.51343 7.01056 4.78663C7.19341 5.05983 7.29101 5.38117 7.29102 5.70991C7.29102 6.14844 7.1175 6.56916 6.80835 6.88018C6.4992 7.1912 6.07958 7.36726 5.64105 7.3699ZM7.24103 4.59991C7.11372 4.59991 6.99163 4.54933 6.90161 4.45931C6.81159 4.3693 6.76105 4.24721 6.76105 4.1199C6.76105 4.02497 6.78918 3.93217 6.84192 3.85323C6.89466 3.7743 6.96966 3.71278 7.05737 3.67645C7.14508 3.64012 7.24154 3.6306 7.33466 3.64912C7.42777 3.66765 7.51332 3.71337 7.58044 3.78049C7.64757 3.84762 7.69327 3.93315 7.71179 4.02626C7.73031 4.11937 7.72084 4.21589 7.68451 4.3036C7.64818 4.39131 7.58663 4.46627 7.50769 4.51901C7.42875 4.57176 7.33596 4.59991 7.24103 4.59991Z" fill="#007C71"/>
<path d="M5.64077 0.629883C4.63364 0.629885 3.64912 0.928664 2.81186 1.4884C1.97459 2.04814 1.32224 2.84368 0.937283 3.77434C0.552328 4.705 0.452108 5.72894 0.649319 6.71658C0.846529 7.70421 1.33228 8.61114 2.04513 9.32259C2.75798 10.034 3.66588 10.518 4.6539 10.7133C5.64192 10.9086 6.66565 10.8063 7.59555 10.4196C8.52545 10.0328 9.31974 9.37881 9.87783 8.54045C10.4359 7.70209 10.7327 6.71702 10.7307 5.70988C10.7281 4.36167 10.1907 3.06957 9.23642 2.11717C8.28214 1.16477 6.98899 0.62988 5.64077 0.629883ZM8.73074 6.94988C8.72739 7.21023 8.67659 7.46779 8.58078 7.70988C8.50012 7.92567 8.37464 8.1219 8.21261 8.28565C8.05059 8.4494 7.85569 8.57695 7.64077 8.65988C7.39671 8.74747 7.14001 8.79475 6.88076 8.79988C6.56076 8.79988 6.46077 8.79988 5.64077 8.79988C4.82077 8.79988 4.72078 8.79988 4.40078 8.79988C4.14164 8.79371 3.88511 8.74646 3.64077 8.65988C3.42465 8.57762 3.22983 8.44774 3.07077 8.27988C2.90705 8.11938 2.78072 7.92477 2.70077 7.70988C2.6096 7.46644 2.55891 7.20971 2.55075 6.94988C2.55075 6.62988 2.55075 6.51988 2.55075 5.70988C2.55075 4.89988 2.55075 4.79988 2.55075 4.47988C2.55906 4.21682 2.60974 3.95683 2.70077 3.70988C2.78261 3.49595 2.90862 3.30167 3.07058 3.1397C3.23255 2.97774 3.42684 2.85172 3.64077 2.76988C3.8845 2.67973 4.14108 2.62909 4.40078 2.61988H6.88076C7.14059 2.62804 7.39733 2.67871 7.64077 2.76988C7.85471 2.85172 8.049 2.97774 8.21096 3.1397C8.37293 3.30167 8.49893 3.49595 8.58078 3.70988C8.6765 3.95549 8.72727 4.2163 8.73074 4.47988C8.73074 4.79988 8.73074 4.90988 8.73074 5.70988C8.73074 6.50988 8.75074 6.62988 8.73074 6.94988Z" fill="#007C71"/>
</svg>
