<svg width="60" height="23" viewBox="0 0 60 23" fill="none" xmlns="http://www.w3.org/2000/svg">
<path d="M15.1306 8.37009C15.1284 7.24581 14.8698 6.13684 14.3744 5.12761C13.8789 4.11837 13.1598 3.23548 12.2716 2.54616C11.3834 1.85683 10.3497 1.37924 9.24908 1.14974C8.14847 0.920246 7.01 0.944894 5.92036 1.22182C4.83071 1.49874 3.81862 2.02063 2.96112 2.74776C2.10363 3.47488 1.42334 4.38808 0.972054 5.41782C0.52077 6.44755 0.310387 7.56667 0.356919 8.68999C0.40345 9.81331 0.705669 10.9112 1.24057 11.9001L7.00057 22.3601C7.06217 22.4659 7.15046 22.5538 7.25662 22.6148C7.36279 22.6759 7.48311 22.708 7.60558 22.708C7.72804 22.708 7.84836 22.6759 7.95452 22.6148C8.06068 22.5538 8.14897 22.4659 8.21057 22.3601L14.0006 12.2301C14.7298 11.074 15.1212 9.73695 15.1306 8.37009Z" fill="#007C71"/>
<path d="M7.7402 5.25L4.7002 7.76H5.6702V10.01V10.98H6.9002H7.0802V8.83H8.4002V10.98H9.8102V7.76H10.7802L7.7402 5.25Z" fill="white"/>
<path d="M19.351 13.0202H21.521V14.0902H18.001V8.24023H19.351V13.0202Z" fill="black"/>
<path d="M27.6206 11.1701C27.6275 11.5743 27.5527 11.9756 27.4006 12.3501C27.2612 12.7059 27.0502 13.0293 26.7806 13.3001C26.4952 13.5804 26.1547 13.7983 25.7806 13.9401C25.3825 14.0959 24.9582 14.1739 24.5306 14.1701C24.1064 14.1739 23.6853 14.0958 23.2906 13.9401C22.9158 13.7999 22.575 13.5818 22.2906 13.3001C22.0178 13.0319 21.8063 12.7078 21.6706 12.3501C21.5186 11.9756 21.4437 11.5743 21.4506 11.1701C21.4464 10.7662 21.5211 10.3654 21.6706 9.99013C21.8024 9.61583 22.014 9.27463 22.2906 8.99013C22.5789 8.7159 22.9188 8.50174 23.2906 8.36012C23.6853 8.20445 24.1064 8.12637 24.5306 8.13013C24.9592 8.12479 25.3845 8.20644 25.7806 8.37013C26.1561 8.50429 26.4975 8.71937 26.7806 9.00013C27.056 9.2856 27.2674 9.62651 27.4006 10.0001C27.5514 10.3715 27.6262 10.7693 27.6206 11.1701ZM26.2306 11.1701C26.2327 10.9061 26.1957 10.6433 26.1206 10.3901C26.0496 10.1741 25.9375 9.97377 25.7906 9.80013C25.6496 9.64114 25.4755 9.51487 25.2806 9.43012C24.8277 9.26999 24.3336 9.26999 23.8806 9.43012C23.6828 9.51473 23.5054 9.64092 23.3606 9.80013C23.2171 9.97444 23.1085 10.1748 23.0406 10.3901C22.8942 10.9032 22.8942 11.447 23.0406 11.9601C23.1085 12.1755 23.2171 12.3758 23.3606 12.5501C23.503 12.7096 23.6812 12.833 23.8806 12.9101C24.3312 13.0834 24.8301 13.0834 25.2806 12.9101C25.477 12.8326 25.6519 12.7092 25.7906 12.5501C25.9375 12.3765 26.0496 12.1762 26.1206 11.9601C26.1964 11.7037 26.2334 11.4375 26.2306 11.1701Z" fill="black"/>
<path d="M31.0014 13.0902C31.1676 13.1075 31.3352 13.1075 31.5014 13.0902C31.6428 13.0635 31.7805 13.0199 31.9114 12.9602V12.0902H31.3314C31.2587 12.0902 31.1882 12.0656 31.1314 12.0202C31.1087 11.9982 31.0907 11.9717 31.0787 11.9425C31.0666 11.9132 31.0607 11.8818 31.0614 11.8502V11.0902H33.1414V13.5602C32.9929 13.6666 32.8357 13.7603 32.6714 13.8402C32.5055 13.9248 32.3312 13.9918 32.1514 14.0402C31.9606 14.0892 31.7669 14.126 31.5714 14.1502C31.3614 14.1502 31.1414 14.1502 30.9014 14.1502C30.4935 14.1523 30.0891 14.0742 29.7114 13.9202C29.3582 13.7769 29.0382 13.5624 28.7714 13.2902C28.4906 13.0071 28.2756 12.6657 28.1414 12.2902C27.9867 11.9127 27.9085 11.5082 27.9114 11.1002C27.9061 10.6897 27.9808 10.2821 28.1314 9.90019C28.2671 9.54248 28.4786 9.21839 28.7514 8.95019C29.0365 8.67665 29.3777 8.46849 29.7514 8.34019C30.1563 8.18362 30.5873 8.10556 31.0214 8.11019C31.2533 8.10677 31.4849 8.13026 31.7114 8.18019C31.9128 8.21433 32.1104 8.26792 32.3014 8.34019C32.4766 8.40524 32.6442 8.48906 32.8014 8.59019C32.9426 8.68297 33.0763 8.78662 33.2014 8.90019L32.8114 9.5002C32.7777 9.55567 32.7292 9.60068 32.6714 9.63019C32.6163 9.64924 32.5565 9.64924 32.5014 9.63019C32.4126 9.62534 32.3265 9.5978 32.2514 9.55019L31.9514 9.38019L31.6614 9.27019C31.5604 9.23969 31.4565 9.21959 31.3514 9.2102C31.2283 9.19966 31.1045 9.19966 30.9814 9.2102C30.7448 9.20414 30.5096 9.24845 30.2914 9.34019C30.0929 9.42826 29.9156 9.55783 29.7714 9.72019C29.6245 9.89383 29.5125 10.0942 29.4414 10.3102C29.3588 10.5549 29.3182 10.8119 29.3214 11.0702C29.315 11.3524 29.359 11.6335 29.4514 11.9002C29.5288 12.1258 29.6513 12.3334 29.8114 12.5102C29.9585 12.6737 30.1393 12.8034 30.3414 12.8902C30.5456 13.0007 30.7701 13.0688 31.0014 13.0902Z" fill="black"/>
<path d="M39.7606 11.1701C39.7675 11.5743 39.6927 11.9756 39.5406 12.3501C39.4046 12.7053 39.197 13.0287 38.9306 13.3001C38.6432 13.578 38.3032 13.7955 37.9306 13.9401C37.5359 14.0958 37.1149 14.1739 36.6906 14.1701C36.2631 14.1739 35.8388 14.0959 35.4406 13.9401C35.068 13.7955 34.728 13.578 34.4406 13.3001C34.1711 13.0293 33.96 12.7059 33.8206 12.3501C33.674 11.9741 33.5993 11.5738 33.6006 11.1701C33.6012 10.7667 33.6758 10.3667 33.8206 9.99013C33.9565 9.61781 34.1675 9.27742 34.4406 8.99013C34.7319 8.71986 35.071 8.50621 35.4406 8.36013C35.8388 8.2044 36.2631 8.12633 36.6906 8.13013C37.116 8.12476 37.5379 8.20643 37.9306 8.37013C38.3042 8.50821 38.6448 8.7228 38.9306 9.00013C39.2029 9.28617 39.4109 9.62713 39.5406 10.0001C39.6913 10.3715 39.7662 10.7694 39.7606 11.1701ZM38.3706 11.1701C38.3777 10.9058 38.3405 10.6422 38.2606 10.3901C38.1968 10.1731 38.0878 9.97196 37.9406 9.80013C37.7978 9.63867 37.6199 9.5121 37.4206 9.43013C36.9711 9.26991 36.4801 9.26991 36.0306 9.43013C35.8313 9.5121 35.6534 9.63867 35.5106 9.80013C35.3634 9.97196 35.2544 10.1731 35.1906 10.3901C35.0308 10.9013 35.0308 11.449 35.1906 11.9601C35.2544 12.1772 35.3634 12.3783 35.5106 12.5501C35.6511 12.7117 35.8299 12.8355 36.0306 12.9101C36.4777 13.0837 36.9735 13.0837 37.4206 12.9101C37.6213 12.8355 37.8001 12.7117 37.9406 12.5501C38.0878 12.3783 38.1968 12.1772 38.2606 11.9601C38.3411 11.7048 38.3782 11.4378 38.3706 11.1701Z" fill="black"/>
<path d="M44.4205 8.25024V9.33023H42.7805V14.0902H41.4205V9.32024H39.7705V8.24023L44.4205 8.25024Z" fill="black"/>
<path d="M47.9009 11.8801V14.0901H46.5409V11.8701L44.4209 8.24006H45.6209C45.7203 8.23641 45.8184 8.26443 45.9009 8.32006C45.971 8.37799 46.0289 8.4494 46.0709 8.53006L46.9009 10.2401C46.9609 10.3701 47.0209 10.5001 47.0809 10.6101C47.1374 10.7204 47.1875 10.8339 47.2309 10.9501C47.2309 10.8401 47.3209 10.7201 47.3709 10.6101L47.5509 10.2401L48.3709 8.53006C48.3908 8.49447 48.4143 8.46097 48.4409 8.43006L48.5409 8.33006C48.5765 8.30229 48.6173 8.28189 48.6609 8.27006C48.7137 8.25955 48.7681 8.25955 48.8209 8.27006H50.0009L47.9009 11.8801Z" fill="black"/>
<path d="M51.7809 12.1402V14.1402H50.4209V8.29021H52.4909C52.85 8.28307 53.2079 8.33372 53.5509 8.44022C53.8196 8.52087 54.0683 8.65716 54.2809 8.84022C54.4691 9.00581 54.6133 9.21537 54.7009 9.45022C54.7953 9.68892 54.8428 9.94355 54.8409 10.2002C54.8425 10.4731 54.7951 10.7441 54.7009 11.0002C54.6127 11.243 54.4648 11.4596 54.2709 11.6302C54.0569 11.8136 53.8088 11.9529 53.5409 12.0402C53.2166 12.1373 52.8794 12.1845 52.5409 12.1802L51.7809 12.1402ZM51.7809 11.1402H52.4909C52.6281 11.1676 52.7699 11.1607 52.9038 11.1202C53.0377 11.0796 53.1595 11.0066 53.2584 10.9077C53.3573 10.8088 53.4303 10.687 53.4709 10.5531C53.5114 10.4192 53.5183 10.2774 53.4909 10.1402C53.4932 10.0176 53.4728 9.89552 53.4309 9.78022C53.3927 9.67159 53.3313 9.57261 53.2509 9.49022C53.1641 9.40539 53.0576 9.34352 52.9409 9.31022C52.7983 9.26727 52.6498 9.24702 52.5009 9.25022H51.7909L51.7809 11.1402Z" fill="black"/>
<path d="M59.3108 8.25024V9.25024H56.9108V10.6202H58.7508V11.6202H56.9108V13.0902H59.3108V14.0902H55.5508V8.24023L59.3108 8.25024Z" fill="black"/>
</svg>
