<svg width="12" height="11" viewBox="0 0 12 11" fill="none" xmlns="http://www.w3.org/2000/svg">
<path d="M6.00113 0.629883C4.99399 0.629885 4.00947 0.928664 3.17221 1.4884C2.33495 2.04814 1.68259 2.84368 1.29763 3.77434C0.91268 4.705 0.81246 5.72894 1.00967 6.71658C1.20688 7.70421 1.69263 8.61114 2.40548 9.32259C3.11833 10.034 4.02623 10.518 5.01425 10.7133C6.00227 10.9086 7.026 10.8063 7.9559 10.4196C8.8858 10.0328 9.68009 9.37881 10.2382 8.54045C10.7963 7.70209 11.0931 6.71702 11.0912 5.70988C11.0885 4.36167 10.551 3.06957 9.59677 2.11717C8.64249 1.16477 7.34935 0.62988 6.00113 0.629883ZM8.32113 4.62988C8.32608 4.67976 8.32608 4.73001 8.32113 4.77988C8.32246 5.21578 8.23739 5.6476 8.07089 6.05045C7.90439 6.45329 7.65979 6.81916 7.3511 7.12691C7.04241 7.43467 6.67577 7.67822 6.27243 7.84351C5.86909 8.00879 5.43701 8.09253 5.00113 8.08988C4.36704 8.09104 3.74591 7.9106 3.21115 7.56989H3.49112C4.0345 7.58704 4.56739 7.41765 5.00113 7.08988C4.75776 7.08503 4.52194 7.0044 4.32657 6.85921C4.13119 6.71402 3.98595 6.51151 3.9111 6.27988H4.13113C4.23086 6.29026 4.33139 6.29026 4.43112 6.27988C4.16738 6.22461 3.93082 6.07999 3.76138 5.87047C3.59194 5.66094 3.5 5.39935 3.50113 5.12988C3.66362 5.21934 3.84568 5.26742 4.03115 5.26988C3.86525 5.16256 3.73004 5.01396 3.63888 4.83865C3.54772 4.66334 3.50371 4.46734 3.51114 4.26988C3.50959 4.06359 3.56122 3.86038 3.6611 3.67988C3.95359 4.0422 4.31968 4.33831 4.73513 4.54862C5.15059 4.75893 5.60597 4.87866 6.07113 4.89988C6.06076 4.81352 6.06076 4.72624 6.07113 4.63988C6.07592 4.41025 6.14816 4.1871 6.2789 3.99826C6.40964 3.80942 6.59311 3.66323 6.80636 3.57793C7.01962 3.49262 7.25327 3.47198 7.47818 3.51856C7.70309 3.56514 7.9093 3.67689 8.07113 3.83988C8.33129 3.78709 8.58118 3.69253 8.81112 3.55988C8.72452 3.82809 8.54322 4.05559 8.30111 4.19988C8.5316 4.17068 8.75701 4.11012 8.9711 4.01988C8.8113 4.25307 8.6116 4.45619 8.38113 4.61988L8.32113 4.62988Z" fill="#007C71"/>
</svg>
