<svg width="11" height="11" viewBox="0 0 11 11" fill="none" xmlns="http://www.w3.org/2000/svg">
<path d="M4.74121 6.66992L6.39124 5.66992L4.74121 4.66992V6.66992Z" fill="#007C71"/>
<path d="M5.37124 0.629893C4.36411 0.629895 3.37965 0.928673 2.54239 1.48841C1.70512 2.04815 1.05271 2.84369 0.667751 3.77435C0.282797 4.70501 0.182577 5.72895 0.379788 6.71659C0.576998 7.70422 1.06275 8.61115 1.7756 9.3226C2.48845 10.0341 3.39634 10.518 4.38437 10.7133C5.37239 10.9086 6.39612 10.8063 7.32602 10.4196C8.25592 10.0328 9.05021 9.37882 9.6083 8.54046C10.1664 7.7021 10.4632 6.71702 10.4613 5.70989C10.4613 5.04194 10.3295 4.38053 10.0736 3.76354C9.81766 3.14656 9.4426 2.5861 8.96981 2.11425C8.49703 1.6424 7.93581 1.26842 7.31833 1.01371C6.70084 0.759007 6.0392 0.628578 5.37124 0.629893ZM8.55124 5.71989C8.55432 6.23277 8.5108 6.74488 8.42123 7.2499C8.38194 7.38251 8.31017 7.50319 8.21237 7.60099C8.11457 7.69879 7.99384 7.7706 7.86123 7.80989C7.03485 7.90622 6.20316 7.94964 5.37124 7.93989C4.53902 7.95015 3.70708 7.90337 2.88125 7.79989C2.74778 7.76229 2.62622 7.69105 2.52816 7.593C2.43011 7.49494 2.35886 7.37336 2.32125 7.23989C2.14795 6.22725 2.14795 5.19253 2.32125 4.17989C2.36055 4.04728 2.43238 3.92659 2.53018 3.82879C2.62798 3.73099 2.74864 3.65918 2.88125 3.61989C4.54334 3.44515 6.21917 3.44515 7.88125 3.61989C8.01386 3.65918 8.13453 3.73099 8.23233 3.82879C8.33013 3.92659 8.40196 4.04728 8.44125 4.17989C8.53093 4.68825 8.57444 5.20369 8.57125 5.71989H8.55124Z" fill="#007C71"/>
</svg>
